<?xml version="1.0" encoding="UTF-8"?>
<svg id="Layer_1" xmlns="http://www.w3.org/2000/svg" version="1.1" viewBox="53 47 254 86">
  <!-- Generator: Adobe Illustrator 29.7.1, SVG Export Plug-In . SVG Version: 2.1.1 Build 8)  -->
  <g>
    <g>
      <polygon points="60.6 74 57.3 71.1 54 74 54 81.9 57.3 79 60.6 81.9 60.6 74"/>
      <polygon points="94 51.2 90.7 48.3 87.4 51.2 87.4 51.2 87.4 62 87.4 62 90.7 59.1 94 62 94 62 94 51.2 94 51.2"/>
      <polygon points="98.3 70.2 98.3 70.2 101.7 67.3 105 70.2 105 61.3 105 61.3 101.6 58.5 98.3 61.3 98.3 61.3 98.3 70.2"/>
      <polygon points="83.1 68.4 83.1 68.4 79.8 65.6 76.5 68.4 76.5 68.4 76.5 80.2 76.5 80.2 79.8 77.4 83.1 80.2 83.1 80.2 83.1 68.4"/>
      <polygon points="83.1 56.7 83.1 56.7 79.8 53.9 76.5 56.7 76.5 56.7 76.5 63.3 76.5 63.3 79.8 60.5 83.1 63.3 83.1 63.3 83.1 56.7"/>
      <polygon points="109.6 84.9 112.9 82.1 116.2 84.9 116.2 77.6 112.9 74.7 109.6 77.6 109.6 84.9"/>
      <polygon points="71.9 67 68.6 64.2 65.2 67 65.2 78.4 68.5 75.5 71.9 78.4 71.9 67"/>
      <polygon points="109.6 72.4 112.9 69.6 116.2 72.4 116.2 72.4 116.2 65.1 116.2 65.1 112.9 62.2 109.6 65.1 109.6 72.4"/>
      <path d="M120.8,91.4l3.2-2.8,3.4,2.9c0-.2,0-18.7,0-18.7h0l-3.3-2.8-3.3,2.8h0s0,18.5,0,18.6Z"/>
      <path d="M68.4,88.2l3.5,2.5v-7.2s-3.3-2.8-3.3-2.8l-3.3,2.8s0,7.8,0,7.9l3.2-3.2Z"/>
    </g>
    <g>
      <path d="M90.7,64.2l-3.3,2.8h0v24.3h0c0,1.8,1.5,3.3,3.3,3.3s3.3-1.5,3.3-3.3h0v-24.3h0l-3.3-2.8Z"/>
      <path d="M98.3,91c0,4.2-3.4,7.6-7.6,7.6s-7.6-3.4-7.6-7.6v-5.7h0l-3.3-2.8-3.3,2.8h0v5.7c0,8,6.4,14.4,14.2,14.4s14.2-6.5,14.2-14.4v-15.7s-3.3-2.8-3.3-2.8l-3.3,2.8h0v15.7Z"/>
      <path d="M124,93.7l-3.8,3.2c-2.8,13.8-14.9,24.1-29.5,24.1s-30.1-13.5-30.1-30.1v-4.1h0l-3.3-2.8-3.3,2.8h0v4.1h0c0,20.3,16.4,36.7,36.7,36.7s33.8-13.6,36.3-31.4l-3-2.6Z"/>
      <path d="M116.2,90h0l-3.3-2.8-3.3,2.8h0v1c0,10.4-8.4,18.9-18.8,18.9s-16-5.9-18.2-13.9l-3.7-2.7-3,3.1c2.5,11.5,12.7,20.2,24.9,20.2s25.5-11.4,25.5-25.5v-1Z"/>
    </g>
  </g>
  <g>
    <path d="M286.8,84.2c-10.6,0-19.2,8.4-19.2,18.8s8.6,18.8,19.2,18.8,19.2-8.4,19.2-18.8-8.6-18.8-19.2-18.8ZM286.8,115.2c-6.9,0-12.5-5.5-12.5-12.2s5.6-12.2,12.5-12.2,12.5,5.5,12.5,12.2-5.6,12.2-12.5,12.2Z"/>
    <path d="M163.2,84.2c-4.8,0-9.1,1.7-12.5,4.6v-15.9l-3.3-2.8-3.3,2.8s0,29.8,0,30.1c0,10.4,8.6,18.8,19.2,18.8s19.2-8.4,19.2-18.8-8.6-18.8-19.2-18.8ZM163.2,115.2c-6.9,0-12.5-5.5-12.5-12.2s5.6-12.2,12.5-12.2,12.5,5.5,12.5,12.2-5.6,12.2-12.5,12.2Z"/>
    <path d="M208.1,84.2c-4.8,0-9.1,1.7-12.5,4.6v-15.9l-3.3-2.8-3.3,2.8s0,29.8,0,30.1c0,10.4,8.6,18.8,19.2,18.8s19.2-8.4,19.2-18.8-8.6-18.8-19.2-18.8ZM208.1,115.2c-6.9,0-12.5-5.5-12.5-12.2s5.6-12.2,12.5-12.2,12.5,5.5,12.5,12.2-5.6,12.2-12.5,12.2Z"/>
    <path d="M249.7,108.1s-.4,1.1-1.2,1.1-1.3-.9-1.4-1.1l-11.4-23.3h-7.5s16.1,32.5,16.5,33.3c.4.8,0,2.6-.9,4.2-1.7,2.7-3.4,3.1-5.3,3.1-4.3,0-6.7-1.6-6.7-1.6l-2.3,5.6s4.5,2.3,8.9,2.2c5.8,0,9.8-3.2,12.9-10.5l15.5-36.4h-7.2l-9.8,23.3Z"/>
  </g>
</svg>